<svg width="18" height="18" viewBox="0 0 18 18" fill="none" xmlns="http://www.w3.org/2000/svg">
<g id="arrow_back_ios">
<mask id="mask0_336_2604" style="mask-type:alpha" maskUnits="userSpaceOnUse" x="0" y="0" width="18" height="18">
<rect id="Bounding box" width="18" height="18" transform="matrix(-1 0 0 1 18 0)" fill="#D9D9D9"/>
</mask>
<g mask="url(#mask0_336_2604)">
<path id="arrow_back_ios_2" d="M11.0264 15.7025L17.2658 9.47457C17.336 9.40438 17.3855 9.33034 17.4144 9.25246C17.4432 9.17458 17.4576 9.09045 17.4576 9.00006C17.4576 8.90968 17.4432 8.82554 17.4144 8.74767C17.3855 8.66978 17.336 8.59574 17.2658 8.52556L11.0192 2.27892C10.8778 2.13757 10.7048 2.06689 10.5 2.06689C10.2952 2.06689 10.1158 2.14382 9.96199 2.29767C9.81295 2.44671 9.73844 2.62218 9.73844 2.82409C9.73844 3.02602 9.81295 3.2015 9.96199 3.35054L15.6115 9.00006L9.95479 14.6568C9.81344 14.7981 9.74277 14.9693 9.74277 15.1703C9.74277 15.3712 9.81969 15.5486 9.97354 15.7025C10.1226 15.8515 10.298 15.926 10.5 15.926C10.7019 15.926 10.8774 15.8515 11.0264 15.7025Z" fill="#A7A6B4"/>
</g>
</g>
</svg>
