<svg width="24" height="24" viewBox="0 0 24 24" fill="none" xmlns="http://www.w3.org/2000/svg">
<g id="receipt_long">
<mask id="mask0_432_2309" style="mask-type:alpha" maskUnits="userSpaceOnUse" x="0" y="0" width="24" height="24">
<rect id="Bounding box" width="24" height="24" fill="#D9D9D9"/>
</mask>
<g mask="url(#mask0_432_2309)">
<path id="receipt_long_2" d="M6 21.5C5.3 21.5 4.70833 21.2583 4.225 20.775C3.74167 20.2917 3.5 19.7 3.5 19V17.4C3.5 17.15 3.58767 16.9373 3.763 16.762C3.93767 16.5873 4.15 16.5 4.4 16.5H6.5V3.4C6.5 3.23333 6.571 3.125 6.713 3.075C6.85433 3.025 6.99167 3.06667 7.125 3.2L7.875 3.95L8.975 2.9C9.05833 2.8 9.16233 2.75 9.287 2.75C9.41233 2.75 9.51667 2.8 9.6 2.9L10.7 3.95L11.775 2.9C11.875 2.8 11.9833 2.75 12.1 2.75C12.2167 2.75 12.325 2.8 12.425 2.9L13.5 3.95L14.575 2.9C14.675 2.8 14.7877 2.75 14.913 2.75C15.0377 2.75 15.1417 2.8 15.225 2.9L16.3 3.95L17.4 2.9C17.4833 2.8 17.5877 2.75 17.713 2.75C17.8377 2.75 17.9417 2.8 18.025 2.9L19.125 3.95L19.875 3.2C20.0083 3.06667 20.146 3.025 20.288 3.075C20.4293 3.125 20.5 3.23333 20.5 3.4V19C20.5 19.7 20.2583 20.2917 19.775 20.775C19.2917 21.2583 18.7 21.5 18 21.5H6ZM18 20C18.2833 20 18.5207 19.904 18.712 19.712C18.904 19.5207 19 19.2833 19 19V5H8V16.5H16.1C16.35 16.5 16.5627 16.5873 16.738 16.762C16.9127 16.9373 17 17.15 17 17.4V19C17 19.2833 17.096 19.5207 17.288 19.712C17.4793 19.904 17.7167 20 18 20ZM9.925 8.75C9.70833 8.75 9.53333 8.679 9.4 8.537C9.26667 8.39567 9.2 8.21667 9.2 8C9.2 7.78333 9.271 7.60433 9.413 7.463C9.55433 7.321 9.73333 7.25 9.95 7.25H14.125C14.325 7.25 14.5 7.321 14.65 7.463C14.8 7.60433 14.875 7.78333 14.875 8C14.875 8.21667 14.8 8.39567 14.65 8.537C14.5 8.679 14.325 8.75 14.125 8.75H9.925ZM9.925 11.75C9.70833 11.75 9.53333 11.679 9.4 11.537C9.26667 11.3957 9.2 11.2167 9.2 11C9.2 10.7833 9.271 10.604 9.413 10.462C9.55433 10.3207 9.73333 10.25 9.95 10.25H14.125C14.325 10.25 14.5 10.3207 14.65 10.462C14.8 10.604 14.875 10.7833 14.875 11C14.875 11.2167 14.8 11.3957 14.65 11.537C14.5 11.679 14.325 11.75 14.125 11.75H9.925ZM16.95 8.875C16.7 8.875 16.4873 8.79167 16.312 8.625C16.1373 8.45833 16.05 8.25 16.05 8C16.05 7.75 16.1373 7.54167 16.312 7.375C16.4873 7.20833 16.7 7.125 16.95 7.125C17.1833 7.125 17.3873 7.20833 17.562 7.375C17.7373 7.54167 17.825 7.75 17.825 8C17.825 8.25 17.7373 8.45833 17.562 8.625C17.3873 8.79167 17.1833 8.875 16.95 8.875ZM16.95 11.875C16.7 11.875 16.4873 11.7917 16.312 11.625C16.1373 11.4583 16.05 11.25 16.05 11C16.05 10.75 16.1373 10.5417 16.312 10.375C16.4873 10.2083 16.7 10.125 16.95 10.125C17.1833 10.125 17.3873 10.2083 17.562 10.375C17.7373 10.5417 17.825 10.75 17.825 11C17.825 11.25 17.7373 11.4583 17.562 11.625C17.3873 11.7917 17.1833 11.875 16.95 11.875ZM6 20H15.5V18H5V19C5 19.2833 5.09567 19.5207 5.287 19.712C5.479 19.904 5.71667 20 6 20Z" fill="#434B47"/>
</g>
</g>
</svg>
