<svg width="18" height="18" viewBox="0 0 18 18" fill="none" xmlns="http://www.w3.org/2000/svg">
<path id="call" d="M16.4305 17.4712C14.4856 17.4712 12.5597 17.0096 10.6526 16.0866C8.74561 15.1635 7.04306 13.9529 5.54499 12.4548C4.04691 10.9568 2.83473 9.25581 1.90847 7.35198C0.982185 5.44815 0.519043 3.5238 0.519043 1.57893C0.519043 1.27893 0.619043 1.02893 0.819043 0.828931C1.01904 0.628931 1.26904 0.528931 1.56904 0.528931H4.83052C5.0895 0.528931 5.31547 0.608739 5.50842 0.768356C5.70135 0.927972 5.8209 1.13406 5.86707 1.38663L6.44014 4.32891C6.47988 4.57506 6.47571 4.79877 6.42764 5.00006C6.37956 5.20134 6.27411 5.37698 6.11129 5.52698L3.81129 7.77506C4.60104 9.11609 5.54272 10.3276 6.63632 11.4097C7.7299 12.4917 8.96773 13.4353 10.3498 14.2405L12.5844 11.9674C12.7472 11.8046 12.9398 11.6889 13.1623 11.6203C13.3847 11.5517 13.6126 11.5373 13.8459 11.577L16.6228 12.1424C16.8754 12.1988 17.0815 12.3209 17.2411 12.5087C17.4007 12.6965 17.4805 12.9199 17.4805 13.1789V16.4212C17.4805 16.7212 17.3805 16.9712 17.1805 17.1712C16.9805 17.3712 16.7305 17.4712 16.4305 17.4712ZM3.09209 6.35586L4.87672 4.64816C4.90877 4.62251 4.9296 4.58725 4.93922 4.54238C4.94883 4.4975 4.94723 4.45583 4.93439 4.41738L4.49979 2.18276C4.48696 2.13147 4.46452 2.09301 4.43247 2.06738C4.40042 2.04173 4.35875 2.02891 4.30747 2.02891H2.16902C2.13055 2.02891 2.09849 2.04173 2.07284 2.06738C2.04721 2.09301 2.03439 2.12506 2.03439 2.16353C2.08566 2.84686 2.19752 3.5411 2.36997 4.24623C2.5424 4.95136 2.78311 5.65457 3.09209 6.35586ZM15.8459 15.9404C15.8844 15.9404 15.9164 15.9276 15.9421 15.902C15.9677 15.8763 15.9805 15.8443 15.9805 15.8058V13.702C15.9805 13.6507 15.9677 13.609 15.9421 13.577C15.9164 13.5449 15.878 13.5225 15.8267 13.5097L13.7267 13.0827C13.6882 13.0699 13.6546 13.0683 13.6257 13.0779C13.5969 13.0875 13.5664 13.1084 13.5344 13.1404L11.7536 14.9404C12.4164 15.2494 13.1078 15.4856 13.8276 15.6491C14.5475 15.8126 15.2203 15.9097 15.8459 15.9404Z" fill="#1C1C1C"/>
</svg>
