<svg width="44" height="44" viewBox="0 0 44 44" fill="none" xmlns="http://www.w3.org/2000/svg">
<g id="Frame 427322027">
<rect width="44" height="44" rx="22" fill="#F3F3F5"/>
<g id="call">
<mask id="mask0_337_2847" style="mask-type:alpha" maskUnits="userSpaceOnUse" x="10" y="10" width="24" height="24">
<rect id="Bounding box" x="10.2983" y="10.7095" width="22.9565" height="22.9565" fill="#D9D9D9"/>
</mask>
<g mask="url(#mask0_337_2847)">
<path id="call_2" d="M28.8842 30.263C27.0239 30.263 25.1816 29.8215 23.3575 28.9386C21.5334 28.0556 19.9049 26.8977 18.4719 25.4648C17.039 24.0318 15.8795 22.4048 14.9935 20.5838C14.1075 18.7627 13.6645 16.922 13.6645 15.0617C13.6645 14.7748 13.7602 14.5356 13.9515 14.3443C14.1428 14.153 14.3819 14.0574 14.6689 14.0574H17.7885C18.0362 14.0574 18.2524 14.1337 18.437 14.2864C18.6215 14.4391 18.7358 14.6362 18.78 14.8778L19.3282 17.6921C19.3662 17.9276 19.3622 18.1416 19.3162 18.3341C19.2702 18.5266 19.1694 18.6946 19.0136 18.8381L16.8283 20.9884C17.5837 22.2712 18.482 23.43 19.5232 24.465C20.5643 25.5001 21.7459 26.4026 23.0678 27.1727L25.2053 24.9985C25.361 24.8428 25.5453 24.7321 25.758 24.6665C25.9708 24.6009 26.1888 24.5871 26.412 24.6251L29.0681 25.1659C29.3097 25.2199 29.5068 25.3367 29.6595 25.5163C29.8122 25.696 29.8885 25.9096 29.8885 26.1574V29.2587C29.8885 29.5456 29.7929 29.7847 29.6015 29.976C29.4102 30.1673 29.1711 30.263 28.8842 30.263Z" fill="#2E323E"/>
</g>
</g>
</g>
</svg>
