<svg width="32" height="32" viewBox="0 0 32 32" fill="none" xmlns="http://www.w3.org/2000/svg">
<g id="Frame 427321751">
<rect width="32" height="32" rx="8" fill="#EFF5F3"/>
<g id="close">
<mask id="mask0_432_2328" style="mask-type:alpha" maskUnits="userSpaceOnUse" x="3" y="4" width="25" height="25">
<rect id="Bounding box" x="3.66455" y="4.24707" width="24" height="24" fill="#D9D9D9"/>
</mask>
<g mask="url(#mask0_432_2328)">
<path id="close_2" d="M15.6645 17.297L10.5895 22.372C10.4561 22.5053 10.2855 22.576 10.0775 22.584C9.86879 22.5926 9.68945 22.522 9.53945 22.372C9.38945 22.222 9.31445 22.047 9.31445 21.847C9.31445 21.647 9.38945 21.472 9.53945 21.322L14.6145 16.247L9.53945 11.172C9.40612 11.0386 9.33545 10.8676 9.32745 10.659C9.31879 10.451 9.38945 10.272 9.53945 10.122C9.68945 9.97197 9.86445 9.89697 10.0645 9.89697C10.2645 9.89697 10.4395 9.97197 10.5895 10.122L15.6645 15.197L20.7395 10.122C20.8728 9.98864 21.0438 9.91764 21.2525 9.90897C21.4605 9.90097 21.6395 9.97197 21.7895 10.122C21.9395 10.272 22.0145 10.447 22.0145 10.647C22.0145 10.847 21.9395 11.022 21.7895 11.172L16.7145 16.247L21.7895 21.322C21.9228 21.4553 21.9935 21.626 22.0015 21.834C22.0101 22.0426 21.9395 22.222 21.7895 22.372C21.6395 22.522 21.4645 22.597 21.2645 22.597C21.0645 22.597 20.8895 22.522 20.7395 22.372L15.6645 17.297Z" fill="#1C1B1F"/>
</g>
</g>
</g>
</svg>
