<svg width="13" height="13" viewBox="0 0 13 13" fill="none" xmlns="http://www.w3.org/2000/svg">
<g id="trending_down">
<mask id="mask0_412_4224" style="mask-type:alpha" maskUnits="userSpaceOnUse" x="0" y="0" width="13" height="13">
<rect id="Bounding box" width="12.5" height="12.5" transform="matrix(1 0 0 -1 0 12.875)" fill="#D9D9D9"/>
</mask>
<g mask="url(#mask0_412_4224)">
<path id="trending_down_2" d="M8.82906 3.62997C8.71838 3.62997 8.62561 3.66742 8.55074 3.74232C8.47587 3.81722 8.43844 3.91003 8.43844 4.02076C8.43844 4.13148 8.47587 4.22424 8.55074 4.29902C8.62561 4.37381 8.71838 4.4112 8.82906 4.4112H9.98292L6.95406 7.40401L5.20153 5.65148C5.15727 5.60723 5.1064 5.57375 5.04891 5.55104C4.99143 5.52834 4.93203 5.51699 4.87072 5.51699C4.80735 5.51699 4.74793 5.52834 4.69248 5.55104C4.63703 5.57375 4.5866 5.60681 4.54119 5.65021L1.45826 8.75918C1.38615 8.82989 1.3501 8.91668 1.3501 9.01953C1.3501 9.1224 1.39086 9.21459 1.47238 9.29611C1.54711 9.37084 1.63822 9.4082 1.74572 9.4082C1.85322 9.4082 1.9447 9.37047 2.02015 9.29501L4.87072 6.44445L6.62453 8.19826C6.67327 8.24701 6.72492 8.28139 6.77945 8.30142C6.83398 8.32145 6.8924 8.33147 6.95472 8.33147C7.01704 8.33147 7.07524 8.32145 7.12933 8.30142C7.18342 8.28139 7.23483 8.24701 7.28357 8.19826L10.5218 4.96006V6.10392C10.5218 6.2146 10.5592 6.30737 10.6341 6.38224C10.709 6.4571 10.8018 6.49453 10.9126 6.49453C11.0233 6.49453 11.116 6.4571 11.1908 6.38224C11.2656 6.30737 11.303 6.2146 11.303 6.10392V4.10072C11.303 3.96734 11.2579 3.85554 11.1677 3.76531C11.0774 3.67509 10.9656 3.62997 10.8322 3.62997H8.82906Z" fill="#1DA260"/>
</g>
</g>
</svg>
