<svg width="20" height="20" viewBox="0 0 20 20" fill="none" xmlns="http://www.w3.org/2000/svg">
<path id="Vector" d="M10.0031 0.25C8.31979 0.249633 6.66506 0.685083 5.19997 1.51396C3.73487 2.34285 2.50934 3.53692 1.64264 4.97997C0.775945 6.42301 0.297619 8.06587 0.254218 9.74862C0.210818 11.4314 0.603823 13.0967 1.39498 14.5825L0.330917 17.7747C0.242778 18.039 0.229987 18.3226 0.293978 18.5938C0.357969 18.8649 0.496213 19.1129 0.693215 19.3099C0.890218 19.5069 1.13819 19.6451 1.40935 19.7091C1.6805 19.7731 1.96412 19.7603 2.22842 19.6722L5.42061 18.6081C6.7282 19.3036 8.17705 19.6921 9.65719 19.744C11.1373 19.7959 12.6099 19.51 13.963 18.9079C15.3161 18.3057 16.5143 17.4033 17.4665 16.269C18.4188 15.1346 19.1002 13.7983 19.4588 12.3613C19.8175 10.9244 19.8441 9.42456 19.5367 7.97578C19.2292 6.52701 18.5957 5.16732 17.6843 3.99992C16.7728 2.83253 15.6074 1.88811 14.2765 1.23836C12.9456 0.588614 11.4842 0.250608 10.0031 0.25ZM10.0031 18.25C8.55277 18.251 7.12788 17.8691 5.87248 17.1428C5.78056 17.0895 5.67837 17.0563 5.57267 17.0455C5.46697 17.0347 5.36017 17.0464 5.25936 17.08L1.7531 18.25L2.92217 14.7438C2.95587 14.643 2.96778 14.5362 2.95711 14.4305C2.94644 14.3248 2.91344 14.2226 2.86029 14.1306C1.95089 12.5584 1.58577 10.7299 1.82157 8.92896C2.05737 7.12801 2.88091 5.4552 4.16444 4.17006C5.44796 2.88491 7.11972 2.05925 8.92038 1.82118C10.721 1.5831 12.5499 1.94591 14.1234 2.85333C15.6968 3.76074 16.9268 5.16204 17.6225 6.83983C18.3182 8.51762 18.4409 10.3781 17.9713 12.1327C17.5018 13.8873 16.4663 15.4379 15.0256 16.5439C13.5849 17.65 11.8194 18.2497 10.0031 18.25Z" fill="#1C1C1C"/>
</svg>
