<svg width="100" height="100" viewBox="0 0 30 30" fill="none" xmlns="http://www.w3.org/2000/svg">
<path d="M7.5 0C7.96023 0 8.33333 0.3731 8.33333 0.833333C8.33333 1.29357 7.96023 1.66667 7.5 1.66667H4.16667C2.78595 1.66667 1.66667 2.78595 1.66667 4.16667V7.55188C1.66667 8.01212 1.29357 8.38522 0.833333 8.38522C0.3731 8.38522 0 8.01212 0 7.55188V4.16667C0 1.86548 1.86548 0 4.16667 0H7.5ZM22.5 1.66667C22.0398 1.66667 21.6667 1.29357 21.6667 0.833333C21.6667 0.3731 22.0398 0 22.5 0H25.8333C28.1345 0 30 1.86548 30 4.16667V7.5C30 7.96023 29.6268 8.33333 29.1667 8.33333C28.7065 8.33333 28.3333 7.96023 28.3333 7.5V4.16667C28.3333 2.78595 27.214 1.66667 25.8333 1.66667H22.5ZM28.3333 22.5C28.3333 22.0398 28.7065 21.6667 29.1667 21.6667C29.6268 21.6667 30 22.0398 30 22.5V25.8333C30 28.1345 28.1345 30 25.8333 30H22.5C22.0398 30 21.6667 29.6268 21.6667 29.1667C21.6667 28.7065 22.0398 28.3333 22.5 28.3333H25.8333C27.214 28.3333 28.3333 27.214 28.3333 25.8333V22.5ZM0 22.5C0 22.0398 0.3731 21.6667 0.833333 21.6667C1.29357 21.6667 1.66667 22.0398 1.66667 22.5V25.8333C1.66667 27.214 2.78595 28.3333 4.16667 28.3333H7.5C7.96023 28.3333 8.33333 28.7065 8.33333 29.1667C8.33333 29.6268 7.96023 30 7.5 30H4.16667C1.86548 30 0 28.1345 0 25.8333V22.5ZM8.33333 9.16667C8.33333 8.70643 8.70643 8.33333 9.16667 8.33333C9.6269 8.33333 10 8.70643 10 9.16667V10.8333C10 11.2936 9.6269 11.6667 9.16667 11.6667C8.70643 11.6667 8.33333 11.2936 8.33333 10.8333V9.16667ZM21.6667 9.16667C21.6667 8.70643 22.0398 8.33333 22.5 8.33333C22.9602 8.33333 23.3333 8.70643 23.3333 9.16667V10.8333C23.3333 11.2936 22.9602 11.6667 22.5 11.6667C22.0398 11.6667 21.6667 11.2936 21.6667 10.8333V9.16667ZM15 9.16667C15 8.70643 15.3732 8.33333 15.8333 8.33333C16.2935 8.33333 16.6667 8.70643 16.6667 9.16667V15.8333C16.6667 17.214 15.5473 18.3333 14.1667 18.3333C13.7065 18.3333 13.3333 17.9602 13.3333 17.5C13.3333 17.0398 13.7065 16.6667 14.1667 16.6667C14.6268 16.6667 15 16.2935 15 15.8333V9.16667ZM8.5 21.3333C8.22385 20.9652 8.29848 20.4428 8.66667 20.1667C9.03485 19.8905 9.55718 19.9652 9.83333 20.3333C11.3516 22.3577 13.059 23.3333 15 23.3333C16.941 23.3333 18.6483 22.3577 20.1667 20.3333C20.4428 19.9652 20.9652 19.8905 21.3333 20.1667C21.7015 20.4428 21.7762 20.9652 21.5 21.3333C19.685 23.7533 17.5033 25 15 25C12.4967 25 10.3151 23.7533 8.5 21.3333Z" fill="#747C78"/>
</svg>
