<svg width="100" height="100" viewBox="0 0 118 104" fill="none" xmlns="http://www.w3.org/2000/svg">
<rect width="118" height="104" rx="10" fill="#FFA500"/>
<g clip-path="url(#clip0_159_2177)">
<path d="M48.4949 31.1761C52.085 30.3401 54.3177 26.752 53.4816 23.1619C52.6456 19.5718 49.0575 17.3391 45.4674 18.1752C41.8772 19.0112 39.6446 22.5993 40.4807 26.1894C41.3167 29.7795 44.9048 32.0122 48.4949 31.1761Z" fill="white"/>
<path d="M71.83 46.8054C71.8994 45.8521 71.3947 44.991 70.61 44.5566V48.7082C71.2873 48.3331 71.7692 47.6359 71.83 46.8054Z" fill="white"/>
<path d="M62.3956 72.6681L62.417 72.6684C60.9133 74.0588 59.9656 76.085 59.9656 78.3423C59.9656 82.5348 63.2324 85.9342 67.261 85.9342C71.2909 85.9342 74.5558 82.5348 74.5558 78.3423C74.5558 76.0835 73.6085 74.0573 72.1045 72.6669C71.8766 72.4067 70.0159 70.1443 70.0159 65.721C70.0159 63.0376 70.0159 55.1936 70.0159 48.9388C70.0159 47.2386 70.0159 45.6566 70.0159 44.3271C70.0159 41.9623 70.0159 40.3966 70.0159 40.3966C70.0159 40.3966 69.6979 35.3588 71.204 32.7982C74.2256 31.1189 76.0058 27.7177 75.3768 24.2448C74.86 21.3816 72.8352 19.1821 70.2343 18.2617C70.6782 20.7146 71.3007 24.1605 71.3657 24.5198C71.4683 25.0824 69.7893 27.1596 67.5791 27.5928C65.3695 28.0248 63.0641 26.6303 62.979 26.1609C62.9244 25.8607 62.2957 22.3773 61.8476 19.9034C59.7458 21.7445 58.6272 24.5581 59.1449 27.4213C59.6022 29.9519 61.2382 31.9612 63.4065 33.0303C64.758 35.954 64.5064 40.3731 64.5064 40.3731C64.5064 40.3731 64.5064 41.4579 64.5064 43.1835C64.5064 44.5258 64.5064 46.2556 64.5064 48.1691C64.5064 54.5308 64.5064 62.9062 64.5064 65.6979C64.5067 70.4078 62.3956 72.6681 62.3956 72.6681ZM64.6076 74.408C64.8592 74.395 65.1779 74.2039 65.3146 73.9828L65.6484 73.4449C65.7852 73.2242 66.0813 73.1423 66.3056 73.2618L66.8528 73.5532C67.0777 73.6731 67.445 73.6731 67.6699 73.5532L68.2176 73.2618C68.4425 73.1426 68.7374 73.2242 68.8748 73.4449L69.2086 73.9828C69.3448 74.2036 69.6635 74.395 69.9163 74.408L70.5304 74.4401C70.7814 74.4528 70.998 74.6783 71.012 74.9403L71.0417 75.58C71.0544 75.842 71.2387 76.1728 71.4496 76.3155L71.9677 76.663C72.1798 76.8054 72.2576 77.1137 72.1439 77.3469L71.8623 77.9171C71.7475 78.1507 71.7475 78.5337 71.8623 78.7669L72.1439 79.3366C72.2576 79.5698 72.1798 79.8775 71.9677 80.0208L71.4496 80.3679C71.2387 80.5104 71.0544 80.8418 71.0417 81.1038L71.012 81.7426C70.998 82.0055 70.7814 82.2307 70.5304 82.244L69.9163 82.2758C69.6635 82.2891 69.3448 82.4796 69.2086 82.7012L68.8748 83.238C68.7368 83.459 68.4419 83.5415 68.217 83.4216L67.6693 83.1297C67.445 83.011 67.0777 83.011 66.8528 83.1297L66.3056 83.4216C66.0813 83.5415 65.7852 83.459 65.6484 83.238L65.3146 82.7012C65.1779 82.4799 64.8592 82.2891 64.6076 82.2758L63.9922 82.244C63.7406 82.2304 63.5246 82.0052 63.5124 81.7426L63.4807 81.1038C63.4679 80.8415 63.2837 80.5104 63.0727 80.3679L62.5571 80.0208C62.3437 79.8778 62.2651 79.5698 62.3802 79.3366L62.66 78.7669C62.776 78.5337 62.776 78.1507 62.66 77.9171L62.3802 77.3469C62.2648 77.1137 62.3437 76.8057 62.5571 76.663L63.0727 76.3155C63.2837 76.1728 63.4679 75.8417 63.4807 75.58L63.5124 74.9403C63.5246 74.6783 63.7409 74.4528 63.9922 74.4401L64.6076 74.408Z" fill="white"/>
<path d="M26.037 74.1578H36.0612V71.5044H37.0982L36.1597 63.0524H34.1691L33.0894 59.2142C33.3039 58.8531 33.4273 58.4318 33.4226 57.9811C33.4208 57.844 33.4208 57.7034 33.4208 57.5586C33.4282 48.0773 35.7354 43.2482 37.7426 40.7769C38.1622 40.2624 38.5713 39.8494 38.9565 39.5108V50.3053V55.9246V82.3315C38.9565 84.3574 40.5993 85.9997 42.6252 85.9997C44.6506 85.9997 46.2934 84.3574 46.2934 82.3315V58.2173H47.709V82.3315C47.709 84.3574 49.3519 85.9997 51.3778 85.9997C53.4031 85.9997 55.0459 84.3574 55.0459 82.3315V50.3056C55.0459 50.1297 55.0293 49.9582 55.0053 49.7887V42.7001C57.0674 44.7071 60.017 46.7748 63.9124 47.9895V42.9544C61.4975 41.9735 59.652 40.5944 58.251 39.2361C57.0852 38.0988 56.2529 36.9793 55.7239 36.1637C55.4596 35.7557 55.2703 35.424 55.1531 35.2056C55.0946 35.0962 55.0537 35.0152 55.0299 34.9674C55.0204 34.9484 55.0139 34.9347 55.01 34.9258C55.0089 34.9229 55.008 34.9211 55.0077 34.9205C54.8836 34.6484 54.7133 34.4131 54.5125 34.2149C54.0926 33.6823 53.4428 33.3394 52.7121 33.3394H41.2497C41.0586 33.3394 40.8744 33.3652 40.6972 33.4091C40.5539 33.4129 40.4085 33.4281 40.2632 33.4589V33.4583C39.9012 33.5287 36.9036 34.2838 34.0617 37.7793C31.2136 41.27 28.6658 47.3296 28.6732 57.5586C28.6732 57.7093 28.6738 57.8678 28.6753 58.0315C28.6797 58.4644 28.802 58.868 29.0082 59.2154L27.9291 63.0524H25.9385L25 71.5044H26.037V74.1578ZM29.8894 60.0764C30.2324 60.269 30.6276 60.3803 31.0484 60.3803C31.057 60.3803 31.0656 60.38 31.0739 60.38C31.4866 60.3755 31.8729 60.266 32.2091 60.0773L33.0452 63.0518H29.0527L29.8894 60.0764Z" fill="white"/>
</g>
<defs>
<clipPath id="clip0_159_2177">
<rect width="50.5029" height="68" fill="white" transform="translate(25 18)"/>
</clipPath>
</defs>
</svg>
