<svg width="16" height="17" viewBox="0 0 16 17" fill="none" xmlns="http://www.w3.org/2000/svg">
<g id="location_on">
<mask id="mask0_203_1970" style="mask-type:alpha" maskUnits="userSpaceOnUse" x="0" y="0" width="16" height="17">
<rect id="Bounding box" y="0.5" width="16" height="16" fill="#D9D9D9"/>
</mask>
<g mask="url(#mask0_203_1970)">
<path id="location_on_2" d="M7.99999 8.33333C8.32222 8.33333 8.59733 8.21955 8.82533 7.992C9.05288 7.764 9.16666 7.48889 9.16666 7.16667C9.16666 6.84444 9.05288 6.56933 8.82533 6.34133C8.59733 6.11378 8.32222 6 7.99999 6C7.67777 6 7.40266 6.11378 7.17466 6.34133C6.94711 6.56933 6.83333 6.84444 6.83333 7.16667C6.83333 7.48889 6.94711 7.764 7.17466 7.992C7.40266 8.21955 7.67777 8.33333 7.99999 8.33333ZM7.99999 14.8C7.92222 14.8 7.84444 14.7889 7.76666 14.7667C7.68888 14.7444 7.61666 14.7056 7.54999 14.65C5.97222 13.2167 4.79177 11.8889 4.00866 10.6667C3.22511 9.44444 2.83333 8.32222 2.83333 7.3C2.83333 5.68889 3.35288 4.40267 4.39199 3.44133C5.43066 2.48044 6.63333 2 7.99999 2C9.36666 2 10.5696 2.48044 11.6087 3.44133C12.6473 4.40267 13.1667 5.68889 13.1667 7.3C13.1667 8.32222 12.7751 9.44444 11.992 10.6667C11.2084 11.8889 10.0278 13.2167 8.44999 14.65C8.38333 14.7056 8.31111 14.7444 8.23333 14.7667C8.15555 14.7889 8.07777 14.8 7.99999 14.8Z" fill="#2DC08B"/>
</g>
</g>
</svg>
