<svg width="18" height="18" viewBox="0 0 18 18" fill="none" xmlns="http://www.w3.org/2000/svg">
<g id="location_on">
<mask id="mask0_336_2546" style="mask-type:alpha" maskUnits="userSpaceOnUse" x="0" y="0" width="18" height="18">
<rect id="Bounding box" width="18" height="18" fill="#D9D9D9"/>
</mask>
<g mask="url(#mask0_336_2546)">
<path id="location_on_2" d="M8.99998 8.81246C9.36441 8.81246 9.67426 8.68482 9.92953 8.42953C10.1848 8.17426 10.3125 7.86441 10.3125 7.49998C10.3125 7.13556 10.1848 6.82571 9.92953 6.57043C9.67426 6.31514 9.36441 6.1875 8.99998 6.1875C8.63556 6.1875 8.32571 6.31514 8.07043 6.57043C7.81514 6.82571 7.6875 7.13556 7.6875 7.49998C7.6875 7.86441 7.81514 8.17426 8.07043 8.42953C8.32571 8.68482 8.63556 8.81246 8.99998 8.81246ZM8.99998 14.8514C10.5442 13.4707 11.7115 12.1531 12.5019 10.8988C13.2923 9.64446 13.6875 8.56152 13.6875 7.64998C13.6875 6.22978 13.2351 5.06848 12.3303 4.16608C11.4255 3.26367 10.3154 2.81246 8.99998 2.81246C7.68459 2.81246 6.57449 3.26367 5.66968 4.16608C4.76487 5.06848 4.31246 6.22978 4.31246 7.64998C4.31246 8.56152 4.70766 9.64446 5.49804 10.8988C6.28843 12.1531 7.45574 13.4707 8.99998 14.8514ZM8.99998 16.3557C7.04518 14.6577 5.58773 13.0815 4.62763 11.6271C3.66754 10.1728 3.1875 8.84709 3.1875 7.64998C3.1875 5.83268 3.77259 4.38461 4.94278 3.30576C6.11297 2.22692 7.46537 1.6875 8.99998 1.6875C10.5346 1.6875 11.887 2.22692 13.0572 3.30576C14.2274 4.38461 14.8125 5.83268 14.8125 7.64998C14.8125 8.84709 14.3324 10.1728 13.3723 11.6271C12.4122 13.0815 10.9548 14.6577 8.99998 16.3557Z" fill="#BFBFBF"/>
</g>
</g>
</svg>
