<svg width="100" height="100" viewBox="0 0 326 294" fill="none" xmlns="http://www.w3.org/2000/svg">
<path d="M295.064 122.47C291.285 89.6679 263.567 79.6529 254.063 92.5204C241.548 109.466 220.958 103.125 218.845 85.9176C216.732 68.7106 222.634 50.1583 212.812 37.7901C202.99 25.422 173.245 27.2748 167.535 40.1148C158.356 60.7586 172.226 82.4903 164.556 85.3444C151.142 90.3354 143.351 66.364 127.04 68.106C104.087 70.558 95.9006 81.813 92.5649 96.692C87.7882 111.783 74.7075 118.68 68.9175 116.768C64.9676 115.464 60.9936 115.063 58.8659 114.94C53.5853 114.421 47.778 117.331 42.5469 122.722C31.6181 133.985 24.6817 168.795 35.6755 195.195C46.6694 221.595 90.1541 261.273 121.942 261.273H206.839C206.839 261.273 253.136 258.718 271.941 225.861C289.171 195.756 298.843 155.272 295.064 122.47Z" fill="#FFA500"/>
<path d="M257.513 40.1967C257.513 40.1967 270.8 44.0598 268.239 60.6789C266.079 74.6971 241.106 91.0313 234.005 87.8833C226.559 84.5829 225.052 74.7377 228.145 59.5189C232.375 38.7047 248.921 36.5288 257.513 40.1967ZM40.9382 66.6692C40.9382 66.6692 48.0183 54.7805 63.4595 61.4378C76.4842 67.0534 86.014 95.3308 81.1813 101.413C76.1147 107.79 66.207 106.772 52.2549 99.9519C33.1732 90.6239 35.2278 74.0623 40.9382 66.6692Z" fill="#FFA500"/>
<path d="M113.192 58.5517C118.974 58.5517 123.661 53.8645 123.661 48.0826C123.661 42.3007 118.974 37.6135 113.192 37.6135C107.41 37.6135 102.723 42.3007 102.723 48.0826C102.723 53.8645 107.41 58.5517 113.192 58.5517Z" fill="#FFA500"/>
<path d="M235.643 206.935C235.663 191.415 213.294 186.596 213.516 206.112C213.516 206.112 216.179 242.767 220.099 259.274C224.14 258.399 228.831 257.154 233.773 255.387C234.318 243.564 235.633 214.264 235.643 206.935Z" fill="#8C4949"/>
<path d="M235.629 205.654C234.078 194.275 226.429 162.779 218.773 138.635C213.295 121.7 190.272 125.722 188.847 143.279C187.46 160.363 215.479 210.176 215.056 209.117C215.351 210.041 215.775 210.941 216.341 211.788C221.95 220.547 236.127 215.912 235.63 205.677C235.632 205.677 235.631 205.668 235.629 205.654Z" fill="#8C4949"/>
<path d="M205.803 126.474C205.803 126.474 216.337 127.451 222.624 143.439C228.407 158.146 237.585 194.173 237.585 194.173C237.585 194.173 224.578 202.849 209.697 203.745C209.697 203.745 188.922 160.727 186.756 148.154C184.589 135.58 193.54 125.541 205.803 126.474Z" fill="#EAE0DC"/>
<path d="M81.5821 212.557C84.8054 201.534 92.5325 160.605 103.687 137.865C111.618 121.931 134.209 129.794 133.012 147.368C131.848 164.468 100.838 220.02 101.413 219.035C100.984 219.906 100.431 220.733 99.746 221.486C92.8993 229.316 79.5673 222.628 81.5782 212.58C81.5759 212.579 81.5783 212.571 81.5821 212.557Z" fill="#8C4949"/>
<path d="M102.665 205.128C105.891 186.503 97.051 166.356 95.6614 158.57C92.3614 168.86 89.5299 179.855 87.2143 189.405L102.665 205.128Z" fill="#723333"/>
<path d="M114.509 127.159C114.509 127.159 106.08 130.236 100.187 140.845C94.2947 151.454 85.6897 180.174 85.6897 180.174C85.6897 180.174 96.2986 194.951 115.513 202.259C115.513 202.259 129.894 167.486 133.784 154.873C137.674 142.26 131.776 123.374 114.509 127.159Z" fill="#EAE0DC"/>
<path d="M102.519 207.887C102.519 207.887 103.752 200.492 99.0688 187.348C90.8469 164.273 88.8135 155.609 88.8135 155.609L87.2221 142.613C87.2221 138.739 83.8767 135.496 80.0027 135.496C76.1288 135.496 72.9885 138.637 72.9885 142.51C72.9885 142.826 73.0114 143.136 73.0518 143.441C73.5989 151.452 76.6523 193.439 79.1478 213.861C79.7542 220.031 84.957 224.852 91.2867 224.852C98.0239 224.852 103.486 219.391 103.486 212.654C103.485 210.962 103.141 209.351 102.519 207.887Z" fill="#8C4949"/>
<path d="M88.8135 155.609L87.2221 142.613C87.2221 138.739 83.8767 135.496 80.0027 135.496C76.1288 135.496 72.9885 138.637 72.9885 142.51C72.9885 142.826 73.0114 143.136 73.0518 143.441C73.2447 146.266 73.7494 153.317 74.4313 162.157C77.1317 162.16 85.2262 161.849 89.5062 158.217C89.0046 156.424 88.8135 155.609 88.8135 155.609Z" fill="#723333"/>
<path d="M73.8726 133.773C73.8726 133.773 78.9118 132.27 79.7075 129.706C80.5032 127.142 79.0002 125.197 78.1162 121.042C77.2321 116.887 78.6466 113.35 79.9727 112.997C81.2988 112.643 82.625 114.588 83.4206 117.859C84.2163 121.13 85.1888 125.904 86.7801 128.733C88.3715 131.562 90.4049 137.486 90.6701 140.845C90.9353 144.205 90.6701 145.708 90.6701 145.708C90.6701 145.708 91.3774 152.25 89.2556 155.079C87.1338 157.908 78.0043 159.717 76.0711 159.21C74.1377 158.704 73.8726 133.773 73.8726 133.773Z" fill="#8C4949"/>
<path d="M90.6701 140.845C90.5238 138.992 89.8394 136.36 88.9883 133.897C86.6721 132.122 80.5094 132.167 77.9637 131.812C76.2201 133.072 73.8726 133.773 73.8726 133.773C73.8726 133.773 74.1378 158.704 76.071 159.211C78.0043 159.717 87.1337 157.908 89.2555 155.079C91.3773 152.25 90.67 145.708 90.67 145.708C90.67 145.708 90.9353 144.205 90.6701 140.845Z" fill="#7D3B3B"/>
<path d="M85.896 133.684L72.5464 132.977C72.5464 132.977 70.1593 132.888 69.8057 135.806C69.8057 137.397 70.4246 139.077 70.4246 139.077C70.4246 139.077 69.0101 140.403 68.9217 142.171C68.8332 143.939 70.1593 145.089 70.1593 145.089C70.1593 145.089 69.452 146.769 69.452 148.271C69.452 149.774 70.7782 150.658 70.7782 150.658C70.7782 150.658 70.6013 154.814 71.7506 156.759C72.8999 158.704 74.3145 160.118 79.7958 158.527C83.9421 157.323 86.5148 155.344 87.222 154.637C87.9293 153.93 88.3713 152.692 87.5757 151.366C87.5757 151.366 89.0786 150.305 89.2554 148.272C89.4323 146.238 87.6889 145.344 87.6889 145.344C87.6889 145.344 89.9725 143.773 89.9725 142.181C89.9725 140.059 87.6641 139.165 87.6641 139.165C87.6641 139.165 89.9666 137.689 89.7898 136.452C89.6129 135.214 89.2555 133.949 85.896 133.684Z" fill="#8C4949"/>
<path d="M87.6642 139.205C85.7405 139.323 83.6299 139.418 81.6966 139.484C79.7177 139.58 77.5842 139.71 75.6984 139.156C77.634 138.649 79.7035 138.736 81.6966 138.847C82.4397 138.871 83.9377 138.931 84.6804 138.967C85.6751 139.015 86.6696 139.063 87.6642 139.126C87.7106 139.127 87.7137 139.204 87.6642 139.205ZM87.6669 145.394C85.9649 145.626 84.0953 145.845 82.3809 146.025C80.6303 146.239 78.7197 146.494 77.025 146.053C79.1174 145.279 81.4628 145.435 83.6682 145.355C84.957 145.332 86.3787 145.31 87.6615 145.314C87.7069 145.314 87.7167 145.388 87.6669 145.394ZM87.6738 151.404C86.1261 151.909 84.56 152.354 82.9798 152.745C81.6023 153.14 80.185 153.44 78.7429 153.333C78.6329 153.3 77.992 153.332 78.1121 153.183C80.0099 152.411 82.0526 152.262 84.0518 151.926C84.8725 151.795 86.8118 151.468 87.6546 151.327C87.6987 151.319 87.7218 151.39 87.6738 151.404Z" fill="#723333"/>
<path d="M213.58 135.801C212.082 124.651 184.819 121.797 176.668 120.673C171.495 120.174 166.618 119.962 162.04 119.978C157.461 119.962 152.584 120.174 147.411 120.673C139.26 121.797 111.997 124.651 110.5 135.801C108.036 154.15 125.966 210.402 126.331 211.741C129.704 224.108 131.952 260.929 161.746 260.367C161.821 260.365 162.258 260.365 162.333 260.367C192.127 260.929 194.375 224.108 197.748 211.741C198.113 210.402 216.044 154.15 213.58 135.801Z" fill="#8C4949"/>
<path d="M150.521 105.377C150.521 105.377 150.521 118.868 148.085 124.677C145.649 130.486 156.142 134.796 162.513 134.609C168.884 134.421 177.677 130.473 176.192 125.427C174.319 119.056 173.756 115.308 173.382 105.377C172.942 93.7297 152.582 91.8853 150.521 105.377Z" fill="#8C4949"/>
<path d="M174.037 115.276C173.832 113.028 173.505 108.656 173.382 105.377C172.942 93.7297 152.582 91.8852 150.521 105.377C150.521 105.377 150.368 110.677 150.041 114.907C157.691 123.934 166.465 122.997 174.037 115.276Z" fill="#723333"/>
<path d="M148.285 120.591C148.285 120.591 152.396 126.818 162.54 126.818C172.683 126.818 176.668 120.673 176.668 120.673C176.668 120.673 188.466 121.33 196.429 123.426C204.392 125.521 199.415 130.097 201.878 133.135C204.34 136.174 209.684 174.914 207.221 186.668C204.759 198.422 208.007 261.182 208.007 261.182C208.007 261.182 166.003 267.415 119.992 261.225C119.992 261.225 117.949 197.505 116.534 189.175C116.04 186.262 120.335 177.474 118.892 169.214C116.208 153.856 115.679 139.331 117.472 134.614C118.343 132.322 113.953 127.095 118.773 125.487C129.202 122.007 144.846 120.229 148.285 120.591Z" fill="#116647"/>
<path d="M134.873 163.538L128.261 197.509C128.088 198.394 129.097 199.026 129.818 198.486L142.946 188.643C143.571 188.175 144.466 188.585 144.52 189.363L144.609 190.657C144.684 191.738 146.194 191.924 146.528 190.894L150.16 179.709C150.412 178.931 149.663 178.203 148.893 178.477L137.911 182.386C137.152 182.656 136.407 181.95 136.637 181.177L143.85 156.947C144.142 155.967 142.933 155.247 142.21 155.969L135.144 163.029C135.005 163.168 134.911 163.345 134.873 163.538ZM147.242 159.85L149.628 153.409C149.843 152.83 150.531 152.589 151.059 152.907L169.782 164.17C170.443 164.568 170.411 165.536 169.726 165.889L158.45 171.709C157.949 171.968 157.333 171.754 157.101 171.239L151.623 159.098C151.283 158.345 150.222 158.32 149.847 159.057L149.044 160.638C148.482 161.743 146.811 161.012 147.242 159.85Z" fill="#FFA500"/>
<path d="M146.894 171.654L149.774 166.024C150.162 165.266 151.264 165.324 151.57 166.119L153.739 171.748C153.988 172.394 153.512 173.088 152.82 173.088H147.771C147.035 173.088 146.559 172.309 146.894 171.654ZM157.391 181.736L187.171 165.717C187.758 165.402 188.483 165.748 188.606 166.403L191.107 179.689C191.283 180.623 190.163 181.24 189.467 180.591L183.605 175.128C183.448 174.982 183.247 174.891 183.033 174.869C182.819 174.847 182.603 174.896 182.42 175.009L152.068 193.558C151.182 194.1 150.169 193.078 150.719 192.197L157.022 182.082C157.113 181.937 157.24 181.817 157.391 181.736ZM165.937 170.823L184.476 157.792C185.023 157.407 185.786 157.668 185.983 158.308L187.03 161.702C187.1 161.926 187.087 162.168 186.994 162.383C186.901 162.598 186.734 162.773 186.524 162.877L166.938 172.512C165.848 173.048 164.943 171.521 165.937 170.823ZM159.546 153.972L171.618 161.81C171.777 161.913 171.963 161.969 172.153 161.969C172.342 161.969 172.528 161.915 172.688 161.812L182.291 155.634C183.085 155.123 182.775 153.896 181.834 153.824L160.158 152.164C159.141 152.086 158.691 153.416 159.546 153.972Z" fill="#FFA500"/>
<path d="M162.772 129.608C172.267 129.608 178.053 123.657 180.202 120.936C178.056 120.75 176.668 120.673 176.668 120.673C176.668 120.673 172.683 126.818 162.539 126.818C152.396 126.818 148.285 120.591 148.285 120.591C147.606 120.52 146.453 120.532 144.959 120.624C146.552 122.782 152.409 129.608 162.772 129.608ZM206.408 196.809C206.538 192.288 206.794 188.709 207.221 186.668C209.684 174.914 217.542 134.951 215.08 131.913C212.708 128.986 204.992 125.769 197.312 123.663C197.309 123.662 197.306 123.662 197.303 123.661C196.306 153.843 206.408 196.809 206.408 196.809C206.408 196.809 206.408 196.809 206.408 196.809ZM126.029 123.488C126.026 123.488 126.023 123.489 126.02 123.49C117.997 125.337 110.652 128.005 109.376 131.36C106.619 138.614 115.12 180.845 116.534 189.175C116.779 190.619 117.043 193.725 117.313 197.874C117.313 197.871 127.12 153.685 126.029 123.488Z" fill="#EAE0DC"/>
<path d="M161.74 50.1525C126.053 50.1047 138.338 116.811 161.273 116.768C187.162 116.758 198.026 50.1047 161.74 50.1525Z" fill="#8C4949"/>
<path d="M183.265 84.0218C192.649 77.1068 187.33 96.7606 181.157 95.6863L183.265 84.0218Z" fill="#8C4949"/>
<path d="M186.583 85.6839C186.903 85.5844 186.737 85.0795 186.419 85.1916C183.593 86.2046 182.618 91.9567 183.236 92.0913C184.111 91.972 182.794 88.3632 186.307 88.8898C186.34 88.8963 186.375 88.8962 186.408 88.8895C186.442 88.8827 186.473 88.8695 186.502 88.8504C186.53 88.8314 186.554 88.807 186.573 88.7786C186.592 88.7503 186.605 88.7185 186.611 88.685C186.475 87.8537 184.305 88.5435 184.201 88.7466C184.659 87.4155 185.402 86.0764 186.583 85.6839Z" fill="#723333"/>
<path d="M141.175 84.0218C131.792 77.1068 137.11 96.7606 143.283 95.6863L141.175 84.0218Z" fill="#8C4949"/>
<path d="M137.959 85.1915C137.642 85.0815 137.475 85.5821 137.796 85.6839C138.977 86.0765 139.72 87.4165 140.178 88.748C140.052 88.5405 137.933 87.8513 137.767 88.6849C137.795 88.8256 137.931 88.9179 138.072 88.8897C141.551 88.3786 140.286 91.8641 141.119 92.0923C141.799 92.0058 140.774 86.1953 137.959 85.1915ZM162.72 92.8639C162.659 92.7231 162.523 92.6295 162.37 92.6111C160.742 92.4149 157.415 92.8343 158.873 90.8076C161.215 87.7581 162.087 80.3741 160.591 81.6412C160.508 81.7115 160.434 81.8377 160.442 82.045C160.441 82.0948 160.383 87.072 158.098 90.2508C156.299 92.6849 159.14 93.6378 161.329 93.5284C162.114 93.5599 162.996 93.4941 162.72 92.8639Z" fill="#723333"/>
<path d="M166.165 88.4717C166.165 88.4717 166.974 86.4516 171.799 86.3502C175.721 86.2678 178.694 86.7367 178.761 89.1796C179.155 92.3383 164.304 93.4409 166.165 88.4717ZM156.999 88.4717C156.999 88.4717 156.19 86.4516 151.365 86.3502C147.443 86.2678 144.471 86.7367 144.403 89.1796C144.01 92.3383 158.86 93.4408 156.999 88.4717Z" fill="#844242"/>
<path d="M171.294 82.3106C171.279 85.9169 167.637 85.9167 167.621 82.3105C167.637 78.7043 171.279 78.7044 171.294 82.3106ZM155.554 82.3106C155.538 85.9169 151.896 85.9167 151.881 82.3105C151.897 78.7043 155.539 78.7044 155.554 82.3106Z" fill="#132144"/>
<path d="M141.681 84.7947C141.681 84.7947 144.594 96.504 144.395 102.133C144.196 107.761 153.083 118.056 161.174 118.056H163.566C171.657 118.056 180.543 107.761 180.344 102.133C180.145 96.504 183.228 84.4489 183.228 84.4489L183.058 78.3179L182.65 77.6763C182.65 77.6763 183.122 93.2292 176.573 95.9372C172.015 97.866 168.219 94.8732 162.626 94.8732C155.12 94.8732 152.237 98.4284 147.725 96.864C143.213 95.2996 142.598 81.4967 142.272 79.606C142.272 79.6059 141.388 81.1376 141.681 84.7947Z" fill="#0B183F"/>
<path d="M169.709 97.8659C172.876 99.4309 172.374 101.511 171.461 103.308C169.837 106.504 163.342 107.551 163.342 103.299H160.976C160.976 107.551 154.481 106.504 152.856 103.308C151.943 101.511 151.442 99.4309 154.609 97.8659C157.776 96.3008 166.542 96.3008 169.709 97.8659Z" fill="#8C4949"/>
<path d="M154.255 99.431H169.458C169.458 99.431 168.466 103.308 162.042 103.308C155.617 103.308 154.255 99.431 154.255 99.431Z" fill="white"/>
<path d="M175.208 76.29C175.137 76.29 175.066 76.2754 175 76.2471C170.499 74.3207 165.834 76.229 165.787 76.2485C165.517 76.3615 165.206 76.2346 165.093 75.9646C165.038 75.8351 165.038 75.6892 165.091 75.559C165.144 75.4289 165.246 75.3251 165.376 75.2706C165.428 75.2486 166.674 74.73 168.531 74.468C170.249 74.2255 172.838 74.1681 175.417 75.2718C175.547 75.3272 175.649 75.4317 175.701 75.5622C175.753 75.6928 175.752 75.8389 175.696 75.9682C175.655 76.0637 175.587 76.1451 175.501 76.2024C175.414 76.2596 175.312 76.2901 175.208 76.29ZM158.531 76.29C158.459 76.29 158.388 76.2754 158.322 76.2471C153.821 74.3206 149.156 76.229 149.109 76.2485C148.839 76.3615 148.528 76.2346 148.415 75.9646C148.361 75.8351 148.36 75.6892 148.413 75.559C148.466 75.4289 148.569 75.3251 148.698 75.2706C148.75 75.2486 149.996 74.73 151.853 74.468C153.571 74.2255 156.161 74.1681 158.74 75.2718C158.852 75.3199 158.944 75.4053 159.001 75.5136C159.058 75.6219 159.075 75.7465 159.051 75.8662C159.026 75.986 158.961 76.0936 158.866 76.1708C158.771 76.248 158.653 76.2901 158.531 76.29Z" fill="#132144"/>
<path d="M139.683 60.7476C139.683 60.7476 136.988 66.5955 138.313 82.581C138.313 82.581 140.972 83.1013 141.877 85.1758C141.877 85.1758 142.599 69.333 145.441 62.3389C145.441 62.3389 162.114 53.616 178.813 62.3389C178.813 62.3389 183.177 72.7907 183.058 84.657C183.058 84.657 184.6 82.5742 186.756 82.5547C186.756 82.5547 188.419 68.4783 184.757 60.06C180.057 49.2546 166.338 48.0365 162.772 48.1151C159.206 48.1936 147.743 46.4255 139.683 60.7476Z" fill="#0B183F"/>
<path d="M137.615 60.3939C137.615 60.3939 133.194 61.8085 133.548 63.665C133.902 65.5216 139.648 63.0461 139.648 63.0461C139.648 63.0461 138.398 66.5489 141.631 64.3554C141.631 64.3554 141.505 66.3172 143.273 66.3172C145.041 66.3172 146.013 63.3998 146.013 63.3998C146.013 63.3998 146.367 65.61 147.693 65.7868C149.019 65.9636 150.787 62.5157 150.787 62.5157C150.787 62.5157 152.998 66.7593 157.506 59.6867C157.506 59.6867 156.976 63.223 159.186 63.0462C161.396 62.8694 163.253 59.6867 163.253 59.6867C163.253 59.6867 163.076 63.6651 164.933 63.7535C166.789 63.8419 169.442 59.6867 169.442 59.6867C169.442 59.6867 172.447 64.6375 173.862 64.1956C175.277 63.7535 174.658 62.5158 174.658 62.5158C174.658 62.5158 176.603 64.3724 177.575 62.9579C177.575 62.9579 180.935 65.0797 180.581 62.0737C180.581 62.0737 182.349 65.3448 184.117 64.726C185.885 64.1071 185.001 62.4274 185.001 62.4274C185.001 62.4274 188.715 63.2231 189.068 61.1897C189.422 59.1563 185.001 58.1839 185.001 58.1839C185.001 58.1839 186.946 57.6534 187.3 56.5041C187.654 55.3548 183.764 53.9402 183.764 53.9402C183.764 53.9402 184.736 51.9953 181.2 51.8184C181.2 51.8184 183.41 50.5808 183.056 49.2546C182.703 47.9285 178.813 47.2212 175.984 48.0169C175.984 48.0169 176.072 45.5414 174.304 45.8067C174.304 45.8067 174.658 43.7733 173.862 43.508C173.066 43.2428 170.856 44.9226 170.856 44.9226C170.856 44.9226 170.237 41.8283 168.469 42.1819C166.701 42.5356 165.994 44.3922 165.994 44.3922C165.994 44.3922 165.198 41.7399 163.695 42.1819C162.192 42.624 162.015 44.8342 162.015 44.8342C162.015 44.8342 160.954 42.5356 159.717 42.5356C158.479 42.5356 157.772 43.9501 157.772 43.9501C157.772 43.9501 157.153 40.9443 154.766 41.4747C152.379 42.0051 152.998 44.6573 152.998 44.6573C152.998 44.6573 150.699 42.6239 149.196 43.2428C147.693 43.8617 148.401 46.8675 148.401 46.8675C148.401 46.8675 146.986 45.453 146.102 45.7183C145.218 45.9835 145.218 48.8125 145.218 48.8125C145.218 48.8125 142.389 48.1936 141.681 48.9009C140.974 49.6082 141.947 51.9068 141.947 51.9068C141.947 51.9068 139.56 51.4647 138.499 52.7909C137.438 54.1171 138.234 56.5924 138.234 56.5924C138.234 56.5924 134.786 55.0011 133.548 56.3272C132.31 57.6533 135.316 60.0403 137.615 60.3939Z" fill="#132144"/>
<path d="M145.66 55.7967C141.256 58.8355 144.215 59.1156 147.693 58.449C143.081 60.7212 140.713 57.6178 145.66 55.7967ZM157.153 51.6415C153.336 54.1415 154.902 54.2785 158.391 53.8517C154.402 55.7925 152.373 53.1325 157.153 51.6415ZM158.391 49.2545C157.972 48.35 157.016 44.7442 159.123 45.8499C160.254 46.6741 161.266 47.8727 161.573 49.2545C161.069 48.3368 159.439 46.4203 158.445 46.149C158.024 46.8743 158.387 48.3941 158.391 49.2545ZM151.23 50.1386C147.831 50.495 145.63 51.1805 150.169 52.9676C149.099 52.9045 146.295 52.2568 147.262 50.7127C148.302 49.75 149.936 49.9476 151.23 50.1386ZM140.621 58.1837C136.76 59.7228 139.204 60.1908 141.681 60.7476C138.319 61.4143 136.031 58.6427 140.621 58.1837ZM153.175 56.946C153.275 57.6653 153.118 58.6491 153.562 59.2432C154.432 59.1367 155.44 57.9245 156.18 57.3881C154.832 60.1086 151.925 61.0903 153.175 56.946ZM162.192 53.8517C162.501 54.779 162.504 55.9444 163.133 56.683C164.111 56.1653 164.685 55.0779 165.463 54.2938C163.979 57.9768 161.847 58.4544 162.192 53.8517ZM165.463 48.9009C165.574 44.2253 168.018 44.8773 168.823 48.9009C166.971 45.848 166.795 44.7562 165.463 48.9009ZM170.856 55.0011C172.215 56.333 175.282 59.0561 173.862 55.0011C176.354 58.487 172.479 58.5378 170.856 55.0011ZM175.188 51.5532C176.559 51.2959 178.109 51.0938 179.404 51.7424C180.218 52.4755 178.941 53.3851 178.194 53.4097C178.53 53.1965 179.494 52.5524 179.131 52.1459C177.88 51.7034 176.495 51.8209 175.188 51.5532ZM178.813 58.2721C179.553 58.1817 180.318 58.3106 181.013 58.0868C181.073 57.2611 180.54 56.4423 180.051 55.7967C180.905 56.1829 181.59 57.1331 181.556 58.0928C181.321 59.1502 179.501 58.5207 178.813 58.2721ZM167.621 50.8001C168.537 51.1254 171.115 52.3195 170.625 53.5453C170.089 54.3132 168.958 54.1335 168.204 53.8517C168.861 53.7879 169.786 53.8788 170.195 53.2847C169.876 52.3601 168.34 51.5401 167.621 50.8001ZM172.359 48.9009C173.61 47.545 176.244 48.2868 174.481 50.1386C175.118 48.1931 173.644 48.7226 172.359 48.9009ZM151.848 47.5748C151.711 47.1681 151.168 45.7542 151.86 45.6621C153.127 45.8791 154.448 46.5082 155.208 47.5748C154.133 46.9676 153.012 46.5138 151.849 46.1288C151.901 46.1302 151.973 46.0887 151.984 46.0514C151.853 46.5211 151.913 47.0736 151.848 47.5748ZM142.477 54.2938C141.771 54.0271 141.254 52.9106 142.213 52.6093C143.349 52.4011 144.511 52.854 145.483 53.4097C144.444 53.3655 143.418 53.0468 142.395 53.0792C141.725 53.1792 142.255 53.9642 142.477 54.2938ZM148.489 60.7475C148.355 61.3821 148.016 61.7892 147.693 62.3389C147.25 61.7429 147.813 60.8479 148.489 60.7475ZM173.597 59.5098C174.56 60.0724 174.778 61.481 174.658 62.5157C174.047 61.6172 173.952 60.5045 173.597 59.5098Z" fill="#0B183F"/>
</svg>
