<svg width="32" height="32" viewBox="0 0 32 32" fill="none" xmlns="http://www.w3.org/2000/svg">
<g id="menu">
<mask id="mask0_298_1138" style="mask-type:alpha" maskUnits="userSpaceOnUse" x="0" y="0" width="32" height="32">
<rect id="Bounding box" width="32" height="32" fill="#D9D9D9"/>
</mask>
<g mask="url(#mask0_298_1138)">
<path id="menu_2" d="M5.33325 23.5C5.04436 23.5 4.8057 23.4058 4.61725 23.2173C4.42792 23.028 4.33325 22.7889 4.33325 22.5C4.33325 22.2333 4.42792 22 4.61725 21.8C4.8057 21.6 5.04436 21.5 5.33325 21.5H26.6666C26.9555 21.5 27.1946 21.6 27.3839 21.8C27.5724 22 27.6666 22.2333 27.6666 22.5C27.6666 22.7889 27.5724 23.028 27.3839 23.2173C27.1946 23.4058 26.9555 23.5 26.6666 23.5H5.33325ZM5.33325 17C5.04436 17 4.8057 16.9053 4.61725 16.716C4.42792 16.5276 4.33325 16.2889 4.33325 16C4.33325 15.7111 4.42792 15.472 4.61725 15.2827C4.8057 15.0942 5.04436 15 5.33325 15H26.6666C26.9555 15 27.1946 15.0942 27.3839 15.2827C27.5724 15.472 27.6666 15.7111 27.6666 16C27.6666 16.2889 27.5724 16.5276 27.3839 16.716C27.1946 16.9053 26.9555 17 26.6666 17H5.33325ZM5.33325 10.5C5.04436 10.5 4.8057 10.4 4.61725 10.2C4.42792 10 4.33325 9.76667 4.33325 9.5C4.33325 9.21111 4.42792 8.97244 4.61725 8.784C4.8057 8.59467 5.04436 8.5 5.33325 8.5H26.6666C26.9555 8.5 27.1946 8.59467 27.3839 8.784C27.5724 8.97244 27.6666 9.21111 27.6666 9.5C27.6666 9.76667 27.5724 10 27.3839 10.2C27.1946 10.4 26.9555 10.5 26.6666 10.5H5.33325Z" fill="#1C1B1F"/>
</g>
</g>
</svg>
