<svg width="44" height="44" viewBox="0 0 44 44" fill="none" xmlns="http://www.w3.org/2000/svg">
<g id="Frame 427322026">
<rect width="44" height="44" rx="22" fill="#F3F3F5"/>
<g id="forum">
<mask id="mask0_337_2841" style="mask-type:alpha" maskUnits="userSpaceOnUse" x="10" y="10" width="24" height="24">
<rect id="Bounding box" x="10.5217" y="10.5217" width="22.9565" height="22.9565" fill="#D9D9D9"/>
</mask>
<g mask="url(#mask0_337_2841)">
<path id="forum_2" d="M13.097 26.0836V13.7592C13.097 13.5195 13.1781 13.3185 13.3403 13.1564C13.5025 12.9942 13.7034 12.9131 13.9432 12.9131H25.8629C26.1026 12.9131 26.3036 12.9942 26.4657 13.1564C26.6279 13.3185 26.709 13.5195 26.709 13.7592V21.8529C26.709 22.0926 26.6279 22.2936 26.4657 22.4557C26.3036 22.6179 26.1026 22.699 25.8629 22.699H16.4816L13.097 26.0836ZM17.3278 26.8929C17.088 26.8929 16.887 26.8118 16.7249 26.6497C16.5627 26.4875 16.4816 26.2865 16.4816 26.0468V24.612H28.3185L28.6221 24.9156V16.2609H30.0568C30.2965 16.2609 30.4975 16.342 30.6597 16.5042C30.8219 16.6663 30.903 16.8673 30.903 17.107V30.2775L27.5184 26.8929H17.3278Z" fill="#2E3142"/>
</g>
</g>
</g>
</svg>
