<svg width="24" height="24" viewBox="0 0 24 24" fill="none" xmlns="http://www.w3.org/2000/svg">
<g id="send">
<mask id="mask0_347_1639" style="mask-type:alpha" maskUnits="userSpaceOnUse" x="0" y="0" width="24" height="24">
<rect id="Bounding box" width="24" height="24" fill="#D9D9D9"/>
</mask>
<g mask="url(#mask0_347_1639)">
<path id="send_2" d="M4.76663 18.7228C4.46455 18.8435 4.17793 18.8178 3.90678 18.6458C3.63561 18.4738 3.50003 18.2233 3.50003 17.8942V14.3808C3.50003 14.1699 3.56189 13.9816 3.68561 13.8159C3.80934 13.6502 3.97826 13.5455 4.19236 13.5019L10.423 12L4.19236 10.4981C3.97697 10.4535 3.80774 10.3494 3.68466 10.1858C3.56157 10.0222 3.50003 9.83339 3.50003 9.61929V6.10587C3.50003 5.7768 3.63561 5.52627 3.90678 5.35427C4.17793 5.18225 4.46455 5.15659 4.76663 5.27729L18.723 11.1616C19.0948 11.3281 19.2807 11.6082 19.2807 12.0019C19.2807 12.3955 19.0948 12.6744 18.723 12.8385L4.76663 18.7228Z" fill="#18A974"/>
</g>
</g>
</svg>
