<svg width="24" height="24" viewBox="0 0 24 24" fill="none" xmlns="http://www.w3.org/2000/svg">
<g id="ios_share">
<mask id="mask0_336_2617" style="mask-type:alpha" maskUnits="userSpaceOnUse" x="0" y="0" width="24" height="24">
<rect id="Bounding box" width="24" height="24" fill="#D9D9D9"/>
</mask>
<g mask="url(#mask0_336_2617)">
<path id="ios_share_2" d="M12 15.75C11.7872 15.75 11.609 15.6782 11.4654 15.5346C11.3218 15.391 11.25 15.2128 11.25 15V4.71924L9.91727 6.05197C9.77881 6.19042 9.60894 6.25964 9.40768 6.25964C9.20639 6.25964 9.02819 6.18209 8.87308 6.02697C8.72819 5.87184 8.65575 5.69364 8.65575 5.49237C8.65575 5.29109 8.72819 5.11801 8.87308 4.97314L11.3673 2.47892C11.4506 2.39559 11.5468 2.33213 11.6557 2.28854C11.7647 2.24494 11.8795 2.22314 12 2.22314C12.1205 2.22314 12.2352 2.24494 12.3442 2.28854C12.4532 2.33213 12.5493 2.39559 12.6327 2.47892L15.1365 4.98277C15.2852 5.13149 15.3596 5.30904 15.3596 5.51544C15.3596 5.72184 15.282 5.89748 15.1269 6.04234C14.9718 6.18721 14.7936 6.25964 14.5923 6.25964C14.391 6.25964 14.2179 6.18721 14.0731 6.04234L12.7499 4.71924V15C12.7499 15.2128 12.6782 15.391 12.5346 15.5346C12.391 15.6782 12.2128 15.75 12 15.75ZM6.3077 22.5C5.80257 22.5 5.375 22.325 5.025 21.975C4.675 21.625 4.5 21.1974 4.5 20.6923V10.3077C4.5 9.80261 4.675 9.37504 5.025 9.02504C5.375 8.67504 5.80257 8.50004 6.3077 8.50004H8.11537C8.32819 8.50004 8.50639 8.57185 8.64997 8.71545C8.79356 8.85903 8.86535 9.03723 8.86535 9.25004C8.86535 9.46286 8.79356 9.64106 8.64997 9.78465C8.50639 9.92823 8.32819 10 8.11537 10H6.3077C6.23077 10 6.16024 10.0321 6.09612 10.0962C6.03202 10.1603 5.99997 10.2308 5.99997 10.3077V20.6923C5.99997 20.7692 6.03202 20.8398 6.09612 20.9039C6.16024 20.968 6.23077 21 6.3077 21H17.6922C17.7692 21 17.8397 20.968 17.9038 20.9039C17.9679 20.8398 18 20.7692 18 20.6923V10.3077C18 10.2308 17.9679 10.1603 17.9038 10.0962C17.8397 10.0321 17.7692 10 17.6922 10H15.8846C15.6718 10 15.4936 9.92823 15.35 9.78465C15.2064 9.64106 15.1346 9.46286 15.1346 9.25004C15.1346 9.03723 15.2064 8.85903 15.35 8.71545C15.4936 8.57185 15.6718 8.50004 15.8846 8.50004H17.6922C18.1974 8.50004 18.625 8.67504 18.975 9.02504C19.325 9.37504 19.5 9.80261 19.5 10.3077V20.6923C19.5 21.1974 19.325 21.625 18.975 21.975C18.625 22.325 18.1974 22.5 17.6922 22.5H6.3077Z" fill="#1C1B1F"/>
</g>
</g>
</svg>
