<svg width="14" height="15" viewBox="0 0 14 15" fill="none" xmlns="http://www.w3.org/2000/svg">
<g id="star_rate">
<mask id="mask0_203_2018" style="mask-type:alpha" maskUnits="userSpaceOnUse" x="0" y="0" width="14" height="15">
<rect id="Bounding box" y="0.5" width="14" height="14" fill="#D9D9D9"/>
</mask>
<g mask="url(#mask0_203_2018)">
<path id="star_rate_2" d="M6.99997 10.227L5.03122 11.7291C4.95344 11.7972 4.86594 11.8289 4.76872 11.8242C4.67149 11.8191 4.58885 11.7923 4.5208 11.7437C4.44302 11.6951 4.38469 11.6247 4.3458 11.5325C4.30691 11.44 4.30205 11.3451 4.33122 11.2479L5.08955 8.78327L3.19372 7.42702C3.10622 7.36869 3.05041 7.29344 3.0263 7.20127C3.0018 7.10871 3.00413 7.01868 3.0333 6.93119C3.06247 6.84368 3.1136 6.77077 3.18672 6.71244C3.25944 6.6541 3.34927 6.62494 3.45622 6.62494H5.81872L6.57705 4.08744C6.61594 3.99021 6.67427 3.91243 6.75205 3.8541C6.82983 3.79577 6.91247 3.7666 6.99997 3.7666C7.08747 3.7666 7.1701 3.79577 7.24788 3.8541C7.32566 3.91243 7.38399 3.99021 7.42288 4.08744L8.18122 6.62494H10.5437C10.6507 6.62494 10.7407 6.6541 10.8138 6.71244C10.8865 6.77077 10.9375 6.84368 10.9666 6.93119C10.9958 7.01868 10.9981 7.10871 10.9736 7.20127C10.9495 7.29344 10.8937 7.36869 10.8062 7.42702L8.91038 8.78327L9.66872 11.2479C9.69788 11.3451 9.69302 11.44 9.65413 11.5325C9.61524 11.6247 9.55691 11.6951 9.47913 11.7437C9.41108 11.7923 9.32844 11.8191 9.23122 11.8242C9.13399 11.8289 9.04649 11.7972 8.96872 11.7291L6.99997 10.227Z" fill="#FFCC00"/>
</g>
</g>
</svg>
