<svg width="16" height="16" viewBox="0 0 16 16" fill="none" xmlns="http://www.w3.org/2000/svg">
<g id="star">
<mask id="mask0_413_2227" style="mask-type:alpha" maskUnits="userSpaceOnUse" x="0" y="0" width="16" height="16">
<rect id="Bounding box" width="16" height="16" fill="#D9D9D9"/>
</mask>
<g mask="url(#mask0_413_2227)">
<path id="star_2" d="M8.00032 11.6695L5.43392 13.1863C5.34486 13.2306 5.25872 13.2501 5.17552 13.2447C5.09179 13.2394 5.01686 13.2143 4.95072 13.1695C4.88352 13.1253 4.83339 13.0559 4.80032 12.9615C4.76726 12.8671 4.76726 12.7754 4.80032 12.6863L5.46672 9.85272L3.21712 7.93672C3.13926 7.87006 3.09206 7.79219 3.07552 7.70312C3.05846 7.61406 3.06112 7.53059 3.08352 7.45272C3.10592 7.37539 3.15312 7.30872 3.22512 7.25272C3.29766 7.19726 3.37819 7.16952 3.46672 7.16952L6.41712 6.90312L7.60032 4.18632C7.64459 4.09726 7.70006 4.03059 7.76672 3.98632C7.83339 3.94206 7.91126 3.91992 8.00032 3.91992C8.08939 3.91992 8.16726 3.94206 8.23392 3.98632C8.30059 4.03059 8.35606 4.09726 8.40032 4.18632L9.58352 6.91992L12.5339 7.16952C12.6225 7.16952 12.703 7.20019 12.7755 7.26152C12.8475 7.32286 12.8947 7.39219 12.9171 7.46952C12.9395 7.54739 12.9395 7.62792 12.9171 7.71112C12.8947 7.79486 12.8446 7.87006 12.7667 7.93672L10.5339 9.85272L11.2003 12.6863C11.2334 12.7754 11.2334 12.8671 11.2003 12.9615C11.1673 13.0559 11.1171 13.1253 11.0499 13.1695C10.9838 13.2143 10.9089 13.2394 10.8251 13.2447C10.7419 13.2501 10.6558 13.2306 10.5667 13.1863L8.00032 11.6695Z" fill="#FDC73C"/>
</g>
</g>
</svg>
