<svg width="62" height="62" viewBox="0 0 62 62" fill="none" xmlns="http://www.w3.org/2000/svg">
<g id="Person">
<g clip-path="url(#clip0_1202_63)">
<rect y="0.0340576" width="61.0341" height="61.0341" rx="30.517" fill="#B3FFE3"/>
<path id="Vector" d="M30.518 30.551C36.1382 30.551 40.6904 25.9989 40.6904 20.3786C40.6904 14.7584 36.1382 10.2063 30.518 10.2063C24.8978 10.2063 20.3457 14.7584 20.3457 20.3786C20.3457 25.9989 24.8978 30.551 30.518 30.551ZM30.518 35.6372C23.728 35.6372 10.1733 39.0449 10.1733 45.8095V58.5249C10.1733 59.9236 11.3177 61.068 12.7164 61.068H48.3196C49.7183 61.068 50.8627 59.9236 50.8627 58.5249V45.8095C50.8627 39.0449 37.3081 35.6372 30.518 35.6372Z" fill="#18A974"/>
</g>
</g>
<defs>
<clipPath id="clip0_1202_63">
<rect y="0.0340576" width="61.0341" height="61.0341" rx="30.517" fill="white"/>
</clipPath>
</defs>
</svg>
