<svg width="100" height="100" viewBox="0 0 118 104" fill="none" xmlns="http://www.w3.org/2000/svg">
<rect width="118" height="104" rx="10" fill="#FFA500"/>
<path d="M68.3499 48.6C67.6062 47.8562 64.5249 48.2812 63.5687 48.2812C61.7624 48.2812 59.9562 48.3875 58.1499 48.4937C57.6187 48.4937 53.1562 49.1312 53.0499 48.7062L52.7312 48.0687L44.9749 36.5937C44.0187 35.2125 42.4249 34.4687 40.9374 34.575C40.0874 34.575 39.3437 34.8937 38.5999 35.3187C36.4749 36.8062 35.9437 39.675 37.3249 41.8L45.0812 53.275C45.2937 53.4875 45.5062 53.8062 45.7187 54.0187C50.3937 53.8062 55.0687 53.3812 59.7437 53.0625C61.9749 52.85 64.3124 52.6375 66.5437 52.5312C67.7124 52.425 68.2437 52.6375 68.5624 51.6812C68.8812 51.2562 68.8812 49.2375 68.3499 48.6Z" fill="white"/>
<path d="M36.6355 34.6748C39.5071 34.5286 41.7165 32.0821 41.5703 29.2105C41.4241 26.3389 38.9776 24.1295 36.106 24.2758C33.2344 24.422 31.025 26.8684 31.1713 29.74C31.3175 32.6117 33.7639 34.821 36.6355 34.6748Z" fill="white"/>
<path d="M75.0436 54.8687C73.4498 53.8062 71.4311 54.0187 69.5186 54.125C61.1248 54.975 52.7311 55.7187 44.4436 56.5687C41.1498 51.3625 37.9623 46.05 34.7748 40.8437C33.4998 38.825 32.0123 35 30.0998 33.5125C28.6123 32.45 26.4873 33.1937 26.0623 35C25.6373 36.5937 26.4873 38.2937 27.2311 39.7812C33.3936 52.1062 37.7498 65.3875 40.1936 78.9875C41.5748 78.9875 42.9561 78.8812 44.3373 78.8812V76.65C44.1248 74.2062 45.6123 71.55 47.7373 70.0625C50.4998 68.15 54.0061 67.8312 57.4061 67.8312C60.6998 67.8312 64.2061 68.15 66.8623 70.0625C68.9873 71.55 69.8373 73.7812 70.0498 76.225C70.1561 77.2875 69.8373 78.775 70.5811 79.3062C71.4311 79.9437 74.9373 79.3062 75.9998 79.3062C75.5748 79.3062 76.7436 71.7625 76.8498 71.2312C76.9561 69.5312 77.1686 67.8312 77.2748 66.2375C77.3811 65.2812 77.4873 64.325 77.4873 63.3687C77.6998 60.3937 77.6998 56.5687 75.0436 54.8687ZM91.8311 74.4187L81.6311 59.65V59.5437C81.6311 59.4375 81.5248 59.4375 81.5248 59.4375C81.2061 59.1187 80.7811 58.8 80.2498 58.6937L80.0373 58.5875V66.875L88.5373 76.4375C88.8561 76.8625 89.4936 77.075 90.0248 77.075C90.4498 77.075 90.7686 76.9687 91.0873 76.7562C91.6186 76.4375 91.9373 76.0125 92.0436 75.5875C92.1498 75.2687 92.0436 74.8437 91.8311 74.4187Z" fill="white"/>
</svg>
